<svg xmlns="http://www.w3.org/2000/svg">
    <symbol id="add" viewBox="0 0 180 180">
        <path d="M84,30c2.663,0 9.337,0 12,0c4.967,0 9,4.033 9,9c0,3.916 0,36 0,36c0,0 32.084,0 36,0c4.967,0 9,4.033 9,9c0,2.663 0,9.337 0,12c0,4.967 -4.033,9 -9,9c-3.916,0 -36,0 -36,0c0,0 0,32.084 0,36c0,4.967 -4.033,9 -9,9c-2.663,0 -9.337,0 -12,0c-4.967,0 -9,-4.033 -9,-9c0,-3.916 0,-36 0,-36c0,0 -32.084,0 -36,0c-4.967,0 -9,-4.033 -9,-9c0,-2.663 0,-9.337 0,-12c0,-4.967 4.033,-9 9,-9c3.916,0 36,0 36,0c0,0 0,-32.084 0,-36c0,-4.967 4.033,-9 9,-9Z"/>
    </symbol>
</svg>
