<svg xmlns="http://www.w3.org/2000/svg">
    <symbol id="close" viewBox="0 0 180 180">
        <path d="M134.548,36.967c1.883,1.883 6.602,6.602 8.485,8.485c3.512,3.513 3.512,9.216 0,12.728c-2.769,2.769 -31.82,31.82 -31.82,31.82c0,0 29.051,29.051 31.82,31.82c3.512,3.512 3.512,9.215 0,12.728c-1.883,1.883 -6.602,6.602 -8.485,8.485c-3.513,3.512 -9.216,3.512 -12.728,0c-2.769,-2.769 -31.82,-31.82 -31.82,-31.82c0,0 -29.051,29.051 -31.82,31.82c-3.512,3.512 -9.215,3.512 -12.728,0c-1.883,-1.883 -6.602,-6.602 -8.485,-8.485c-3.512,-3.513 -3.512,-9.216 0,-12.728c2.769,-2.769 31.82,-31.82 31.82,-31.82c0,0 -29.051,-29.051 -31.82,-31.82c-3.512,-3.512 -3.512,-9.215 0,-12.728c1.883,-1.883 6.602,-6.602 8.485,-8.485c3.513,-3.512 9.216,-3.512 12.728,0c2.769,2.769 31.82,31.82 31.82,31.82c0,0 29.051,-29.051 31.82,-31.82c3.512,-3.512 9.215,-3.512 12.728,0Z"/>
    </symbol>
</svg>
