<svg xmlns="http://www.w3.org/2000/svg">
    <symbol id="display" viewBox="0 0 180 180">
        <path d="M72,156l-45,0c-4.967,0 -9,-4.033 -9,-9c0,-4.967 0,-109.033 0,-114c0,-4.967 4.033,-9 9,-9c4.967,0 121.033,0 126,0c4.967,0 9,4.033 9,9c0,4.967 0,109.033 0,114c0,4.967 -4.032,9 -9,9l-45,0l-3,12l-30,0l-3,-12Zm63,-114l-90,0c-4.967,0 -9,4.033 -9,9c0,4.967 0,61.033 0,66c0,4.967 4.033,9 9,9l90,0c4.968,0 9,-4.033 9,-9c0,-4.967 0,-61.033 0,-66c0,-4.967 -4.033,-9 -9,-9Z"/>
        <path d="M82.5,57.152c1.601,0.924 32.957,19.029 32.957,19.029c2.713,1.551 4.543,4.473 4.543,7.819c0,3.326 -1.809,6.234 -4.495,7.792c0,0 -31.385,18.12 -33.007,19.056c-4.302,2.483 -9.81,1.007 -12.294,-3.294c-0.819,-1.42 -1.208,-2.97 -1.206,-4.5l0.002,-38.108c-0.002,-1.53 0.386,-3.08 1.206,-4.5c2.484,-4.301 7.992,-5.777 12.294,-3.294Z"/>
    </symbol>
</svg>
