<svg xmlns="http://www.w3.org/2000/svg">
    <symbol id="edit" viewBox="0 0 180 180">
        <path d="M63.064,150.88l-8.486,8.48c-1.629,1.631 -3.88,2.64 -6.365,2.64c-3.578,0 -17.634,0 -21.213,0c-4.967,0 -9,-4.033 -9,-9c0,-3.579 0,-17.635 0,-21.213c0,-2.485 1.009,-4.736 2.64,-6.365l8.483,-8.483l33.941,33.941Zm80.611,-80.609l-72.127,72.122l-33.941,-33.941l72.127,-72.122l33.941,33.941Zm8.485,-8.485l-33.939,-33.94c0,0 9.598,-9.601 10.605,-10.608c3.512,-3.512 9.215,-3.512 12.728,0c3.512,3.512 17.699,17.7 21.212,21.212c3.512,3.512 3.512,9.216 0,12.728c-0.964,0.963 -10.606,10.608 -10.606,10.608Z"/>
    </symbol>
</svg>
