<svg xmlns="http://www.w3.org/2000/svg">
    <symbol id="expand-x" viewBox="0 0 180 180">
        <path d="M160.004,77.847l-63.64,63.64c-3.512,3.512 -9.216,3.512 -12.728,0c-2.769,-2.769 -60.871,-60.871 -63.64,-63.64c-3.512,-3.512 -3.512,-9.215 0,-12.727c2.769,-2.769 5.717,-5.717 8.486,-8.486c3.512,-3.512 9.215,-3.512 12.728,0c1.963,1.964 39.993,39.994 42.426,42.427c3.512,3.512 9.216,3.512 12.728,0c2.433,-2.433 40.463,-40.463 42.426,-42.427c3.513,-3.512 9.216,-3.512 12.728,0c2.769,2.769 5.717,5.717 8.486,8.486c3.512,3.512 3.512,9.215 0,12.727Z"/>
    </symbol>
    <symbol id="expand-y" viewBox="0 0 180 180">
        <path d="M77.847,19.996l63.64,63.64c3.512,3.512 3.512,9.216 0,12.728c-2.769,2.769 -60.871,60.871 -63.64,63.64c-3.512,3.512 -9.215,3.512 -12.727,0c-2.769,-2.769 -5.717,-5.717 -8.486,-8.486c-3.512,-3.512 -3.512,-9.215 0,-12.728c1.964,-1.963 39.994,-39.993 42.427,-42.426c3.512,-3.512 3.512,-9.216 0,-12.728c-2.433,-2.433 -40.463,-40.463 -42.427,-42.426c-3.512,-3.513 -3.512,-9.216 0,-12.728c2.769,-2.769 5.717,-5.717 8.486,-8.486c3.512,-3.512 9.215,-3.512 12.727,0Z"/>
    </symbol>
</svg>
