<svg xmlns="http://www.w3.org/2000/svg">
    <symbol id="move-x" viewBox="0 0 180 180">
        <path d="M47.998,102l0,9c0,2.304 -0.878,4.608 -2.634,6.364c-3.512,3.512 -9.216,3.512 -12.728,0c-3.512,-3.512 -17.488,-17.488 -21,-21c-3.512,-3.512 -3.512,-9.216 0,-12.728c3.512,-3.512 17.488,-17.488 21,-21c3.512,-3.512 9.216,-3.512 12.728,0c1.756,1.756 2.634,4.06 2.634,6.364l0,9l84.002,0l0,-8.998c0,-2.304 0.878,-4.608 2.634,-6.364c3.513,-3.513 9.216,-3.513 12.728,0c3.513,3.512 17.488,17.487 21,21c3.513,3.512 3.513,9.215 0,12.728c-3.512,3.512 -17.487,17.487 -21,21c-3.512,3.512 -9.215,3.512 -12.728,0c-1.756,-1.756 -2.634,-4.06 -2.634,-6.364l0,-9.002l-84.002,0Z"/>
    </symbol>
    <symbol id="move-y" viewBox="0 0 180 180">
        <path d="M78,48l-9,0c-2.304,0 -4.608,-0.878 -6.364,-2.634c-3.512,-3.513 -3.512,-9.216 0,-12.728c3.512,-3.513 17.488,-17.488 21,-21c3.512,-3.513 9.216,-3.513 12.728,0c3.512,3.512 17.488,17.487 21,21c3.512,3.512 3.512,9.215 0,12.728c-1.756,1.756 -4.06,2.634 -6.364,2.634l-9,0l0,84.002l8.998,0c2.304,0 4.608,0.878 6.364,2.634c3.513,3.512 3.513,9.216 0,12.728c-3.512,3.512 -17.487,17.488 -21,21c-3.512,3.512 -9.215,3.512 -12.728,0c-3.512,-3.512 -17.487,-17.488 -21,-21c-3.512,-3.512 -3.512,-9.216 0,-12.728c1.756,-1.756 4.06,-2.634 6.364,-2.634l9.002,0l0,-84.002Z"/>
    </symbol>
</svg>
