<svg xmlns="http://www.w3.org/2000/svg">
    <symbol viewBox="0 0 18 18" id="play-icons">
        <symbol viewBox="0 0 18 18" id="play-next">
            <path d="M3,16l13,-7l-13,-7l0,14Z"/>
        </symbol>
        <symbol viewBox="0 0 18 18" id="play-previous">
            <path d="M15,2l-13,7l13,7l0,-14Z"/>
        </symbol>
        <symbol viewBox="0 0 18 18" id="play-last">
            <path d="M15,15l-2,0l0,-4.5l-9,4.5l0,-12l9,4.5l0,-4.5l2,0l0,12Z"/>
        </symbol>
        <symbol viewBox="0 0 18 18" id="play-first">
            <path d="M3,3l2,0l0,4.5l9,-4.5l0,12l-9,-4.5l0,4.5l-2,0l0,-12Z"/>
        </symbol>
        <symbol viewBox="0 0 18 18" id="play">
            <path d="M3,16l13,-7l-13,-7l0,14Z"/>
        </symbol>
    </symbol>
</svg>
