<svg xmlns="http://www.w3.org/2000/svg">
    <symbol id="play" viewBox="0 0 180 180">
        <path d="M41.951,140.258c0,-3.336 0.049,-97.127 0.049,-100.448c0,-4.967 4.033,-9 9,-9c1.631,0 3.161,0.435 4.482,1.196l87.036,50.279c2.679,1.559 4.482,4.462 4.482,7.783c0,3.309 -1.789,6.203 -4.452,7.766l-87.079,50.207c-1.328,0.774 -2.872,1.217 -4.518,1.217c-4.967,0 -9,-4.033 -9,-9Z"/>
    </symbol>
    <symbol id="play-first" viewBox="0 0 180 180">
        <path d="M138.049,39.742c0,3.336 -0.049,97.127 -0.049,100.448c0,4.967 -4.033,9 -9,9c-1.631,0 -3.161,-0.435 -4.482,-1.196l-87.036,-50.279c-2.679,-1.559 -4.482,-4.462 -4.482,-7.783c0,-3.309 1.789,-6.203 4.452,-7.766l87.079,-50.207c1.328,-0.774 2.872,-1.217 4.518,-1.217c4.967,0 9,4.033 9,9Z"/>
        <path d="M51,150c-2.304,0 -9.696,0 -12,0c-4.967,0 -9,-4.033 -9,-9c0,-3.916 0,-98.084 0,-102c0,-4.967 4.033,-9 9,-9c2.304,0 9.696,0 12,0c4.967,0 9,4.033 9,9c0,3.916 0,98.084 0,102c0,4.967 -4.033,9 -9,9Z"/>
    </symbol>
    <symbol id="play-last" viewBox="0 0 180 180">
        <path d="M41.951,140.258c0,-3.336 0.049,-97.127 0.049,-100.448c0,-4.967 4.033,-9 9,-9c1.631,0 3.161,0.435 4.482,1.196l87.036,50.279c2.679,1.559 4.482,4.462 4.482,7.783c0,3.309 -1.789,6.203 -4.452,7.766l-87.079,50.207c-1.328,0.774 -2.872,1.217 -4.518,1.217c-4.967,0 -9,-4.033 -9,-9Z"/>
        <path d="M129,30c2.304,0 9.696,0 12,0c4.967,0 9,4.033 9,9c0,3.916 0,98.084 0,102c0,4.967 -4.033,9 -9,9c-2.304,0 -9.696,0 -12,0c-4.967,0 -9,-4.033 -9,-9c0,-3.916 0,-98.084 0,-102c0,-4.967 4.033,-9 9,-9Z"/>
    </symbol>
    <symbol id="play-next" viewBox="0 0 180 180">
        <path d="M41.951,140.258c0,-3.336 0.049,-97.127 0.049,-100.448c0,-4.967 4.033,-9 9,-9c1.631,0 3.161,0.435 4.482,1.196l87.036,50.279c2.679,1.559 4.482,4.462 4.482,7.783c0,3.309 -1.789,6.203 -4.452,7.766l-87.079,50.207c-1.328,0.774 -2.872,1.217 -4.518,1.217c-4.967,0 -9,-4.033 -9,-9Z"/>
    </symbol>
    <symbol id="play-previous" viewBox="0 0 180 180">
        <path d="M138,39.776c0,3.336 -0.049,97.127 -0.049,100.448c0,4.967 -4.033,9 -9,9c-1.631,0 -3.162,-0.435 -4.482,-1.195l-87.036,-50.28c-2.68,-1.559 -4.482,-4.462 -4.482,-7.783c0,-3.309 1.789,-6.203 4.452,-7.766l87.079,-50.207c1.328,-0.774 2.872,-1.217 4.518,-1.217c4.967,0 9,4.033 9,9Z"/>
    </symbol>
</svg>
