<svg xmlns="http://www.w3.org/2000/svg">
    <symbol viewBox="0 0 18 18" id="settings">
        <path d="M10.663,1.175c-1.096,-0.233 -2.23,-0.233 -3.326,0l-0.191,2.119c-0.8,0.259 -1.536,0.685 -2.161,1.247l-1.93,-0.894c-0.75,0.833 -1.317,1.815 -1.663,2.881l1.739,1.225c-0.175,0.822 -0.175,1.672 0,2.494l-1.739,1.225c0.346,1.066 0.913,2.048 1.663,2.881l1.93,-0.894c0.625,0.562 1.361,0.988 2.161,1.247l0.191,2.119c1.096,0.233 2.23,0.233 3.326,0l0.191,-2.119c0.8,-0.259 1.536,-0.685 2.161,-1.247l1.93,0.894c0.75,-0.833 1.317,-1.815 1.663,-2.881l-1.739,-1.225c0.175,-0.822 0.175,-1.672 0,-2.494l1.739,-1.225c-0.346,-1.066 -0.913,-2.048 -1.663,-2.881l-1.93,0.894c-0.625,-0.562 -1.361,-0.988 -2.161,-1.247l-0.191,-2.119Zm-1.663,4.825c1.656,0 3,1.344 3,3c0,1.656 -1.344,3 -3,3c-1.656,0 -3,-1.344 -3,-3c0,-1.656 1.344,-3 3,-3Z"/>
    </symbol>
</svg>
