<svg xmlns="http://www.w3.org/2000/svg">
    <symbol id="settings" viewBox="0 0 180 180">
        <path d="M104.97,19.573c-9.87,-2.097 -20.07,-2.097 -29.94,0l-4.124,20.686c-5.219,2.003 -10.091,4.816 -14.436,8.335l-19.976,-6.771c-6.752,7.498 -11.852,16.332 -14.97,25.928l15.852,13.914c-0.875,5.522 -0.875,11.148 0,16.67l-15.852,13.914c3.118,9.596 8.218,18.43 14.97,25.928l19.976,-6.771c4.345,3.519 9.217,6.332 14.436,8.335l4.124,20.686c9.87,2.097 20.07,2.097 29.94,0l4.124,-20.686c5.219,-2.003 10.091,-4.816 14.436,-8.335l19.976,6.771c6.752,-7.498 11.852,-16.332 14.97,-25.928l-15.852,-13.914c0.875,-5.522 0.875,-11.148 0,-16.67l15.852,-13.914c-3.118,-9.596 -8.218,-18.43 -14.97,-25.928l-19.976,6.771c-4.345,-3.519 -9.217,-6.332 -14.436,-8.335l-4.124,-20.686Zm-14.97,41.627c15.895,0 28.8,12.905 28.8,28.8c0,15.895 -12.905,28.8 -28.8,28.8c-15.895,0 -28.8,-12.905 -28.8,-28.8c0,-15.895 12.905,-28.8 28.8,-28.8Z"/>
    </symbol>
</svg>
