<svg xmlns="http://www.w3.org/2000/svg">
    <symbol id="text-align-center" viewBox="0 0 800 700">
        <rect x="0" y="0" width="800" height="100"/>
        <rect x="150" y="200" width="500" height="100"/>
        <rect x="0" y="400" width="800" height="100"/>
        <rect x="150" y="600" width="500" height="100"/>
    </symbol>
    <symbol id="text-align-left" viewBox="0 0 800 700">
        <rect x="0" y="0" width="800" height="100"/>
        <rect x="0" y="200" width="600" height="100"/>
        <rect x="0" y="400" width="800" height="100"/>
        <rect x="0" y="600" width="600" height="100"/>
    </symbol>
    <symbol id="text-align-right" viewBox="0 0 800 700">
        <rect x="0" y="0" width="800" height="100"/>
        <rect x="200" y="200" width="600" height="100"/>
        <rect x="0" y="400" width="800" height="100"/>
        <rect x="200" y="600" width="600" height="100"/>
    </symbol>
    <symbol id="text-bold" viewBox="0 0 739 800">
        <path d="M512.858,375.934c75.888,17.694 129.167,39.123 159.836,64.288c44.038,35.781 66.058,82.179 66.058,139.193c0,60.159 -24.182,109.899 -72.546,149.219c-59.373,47.577 -145.68,71.366 -258.922,71.366l-406.372,0l0,-21.823c36.961,0 62.027,-3.44 75.2,-10.321c13.172,-6.881 22.412,-15.826 27.72,-26.836c5.308,-11.01 7.963,-38.14 7.963,-81.392l0,-519.024c0,-43.252 -2.655,-70.481 -7.963,-81.687c-5.308,-11.207 -14.646,-20.152 -28.015,-26.836c-13.369,-6.685 -38.337,-10.027 -74.905,-10.027l0,-21.822l383.37,0c91.616,0 156.494,8.158 194.634,24.476c38.14,16.318 68.22,40.696 90.239,73.135c22.019,32.439 33.029,66.943 33.029,103.51c0,38.534 -13.959,72.841 -41.876,102.92c-27.917,30.08 -77.067,53.967 -147.45,71.661Zm-214.687,-15.925c55.835,0 97.022,-6.291 123.563,-18.873c26.541,-12.583 46.889,-30.277 61.045,-53.082c14.155,-22.806 21.232,-51.903 21.232,-87.291c0,-35.388 -6.979,-64.386 -20.938,-86.995c-13.958,-22.609 -33.913,-39.811 -59.864,-51.607c-25.951,-11.796 -67.631,-17.498 -125.038,-17.105l0,314.953Zm0,46.005l0,256.563l-0.59,29.49c0,21.232 5.407,37.255 16.22,48.068c10.813,10.813 26.836,16.22 48.069,16.22c31.456,0 60.454,-6.979 86.995,-20.938c26.541,-13.959 46.889,-34.208 61.044,-60.749c14.156,-26.541 21.233,-56.13 21.233,-88.765c0,-37.354 -8.65,-70.875 -25.951,-100.561c-17.301,-29.687 -41.089,-50.428 -71.366,-62.224c-30.276,-11.796 -75.494,-17.497 -135.654,-17.104Z" style="fill-rule:nonzero;"/>
    </symbol>
    <symbol id="text-italic" viewBox="0 0 533 799">
        <path d="M335.765,776.976l-6.477,21.784l-328.529,0l8.243,-21.784c32.97,-0.785 54.754,-3.533 65.352,-8.243c17.271,-6.673 30.027,-15.897 38.27,-27.672c12.953,-18.448 26.298,-51.418 40.036,-98.912l138.947,-481.607c11.776,-40.036 17.663,-70.259 17.663,-90.67c0,-10.205 -2.551,-18.84 -7.654,-25.905c-5.102,-7.066 -12.854,-12.463 -23.256,-16.191c-10.401,-3.729 -30.713,-5.594 -60.937,-5.594l7.066,-21.784l308.511,0l-6.476,21.784c-25.121,-0.392 -43.765,2.355 -55.933,8.243c-17.663,7.85 -31.106,19.037 -40.33,33.56c-9.224,14.522 -21.097,46.708 -35.62,96.557l-138.359,481.607c-12.561,44.353 -18.841,72.614 -18.841,84.782c0,9.812 2.454,18.153 7.36,25.022c4.906,6.869 12.756,12.168 23.55,15.897c10.794,3.729 33.265,6.771 67.414,9.126Z" style="fill-rule:nonzero;"/>
    </symbol>
    <symbol id="text-strikethrough" viewBox="0 0 711 771">
        <g id="strikethrough" transform="matrix(1.27254,0,0,1.27254,-245.708,-391.49)">
            <path d="M227.607,727.13l97.069,-15.269c5.454,38.9 20.632,68.712 45.535,89.434c24.904,20.723 59.714,31.084 104.431,31.084c45.081,0 78.528,-9.18 100.341,-27.539c21.813,-18.36 32.72,-39.9 32.72,-64.622c0,-22.177 -9.634,-39.627 -28.903,-52.352c-13.451,-8.725 -46.898,-19.813 -100.341,-33.265c-71.983,-18.177 -121.881,-33.901 -149.693,-47.171c-27.812,-13.27 -48.898,-31.629 -63.258,-55.078c-14.361,-23.449 -21.541,-49.353 -21.541,-77.71c0,-25.812 5.908,-49.716 17.724,-71.711c11.815,-21.995 27.902,-40.263 48.261,-54.806c15.27,-11.27 36.083,-20.813 62.441,-28.629c26.357,-7.817 54.624,-11.725 84.799,-11.725c45.444,0 85.344,6.544 119.7,19.632c34.355,13.088 59.713,30.811 76.073,53.17c16.36,22.358 27.63,52.26 33.811,89.706l-95.978,13.088c-4.363,-29.811 -16.997,-53.078 -37.901,-69.802c-20.904,-16.723 -50.443,-25.085 -88.616,-25.085c-45.081,0 -77.255,7.453 -96.524,22.358c-19.268,14.906 -28.902,32.357 -28.902,52.352c0,12.725 3.999,24.177 11.997,34.356c7.998,10.543 20.541,19.268 37.628,26.176c9.816,3.635 38.718,11.997 86.707,25.085c69.439,18.541 117.883,33.72 145.331,45.535c27.448,11.816 48.989,28.994 64.622,51.534c15.633,22.54 23.449,50.534 23.449,83.981c0,32.72 -9.543,63.531 -28.63,92.433c-19.086,28.903 -46.626,51.261 -82.617,67.076c-35.992,15.815 -76.71,23.722 -122.155,23.722c-75.255,0 -132.606,-15.633 -172.051,-46.898c-39.446,-31.266 -64.622,-77.619 -75.529,-139.06Z" style="fill-rule:nonzero;"/>
            <rect x="193.252" y="610.975" width="558.419" height="55.624"/>
        </g>
    </symbol>
    <symbol id="text-subscript" viewBox="0 0 665 738">
        <path d="M400.152,0.228l0,230.854l-18.212,0c-5.907,-44.301 -16.49,-79.577 -31.749,-105.829c-15.259,-26.252 -36.999,-47.089 -65.22,-62.513c-28.22,-15.423 -57.426,-23.134 -87.616,-23.134c-34.127,0 -62.348,10.419 -84.662,31.256c-22.315,20.838 -33.472,44.547 -33.472,71.127c0,20.345 7.056,38.886 21.166,55.621c20.345,24.611 68.747,57.426 145.206,98.445c62.349,33.472 104.926,59.149 127.733,77.033c22.806,17.885 40.362,38.968 52.668,63.251c12.306,24.284 18.458,49.715 18.458,76.295c0,50.535 -19.607,94.097 -58.82,130.686c-39.214,36.589 -89.667,54.883 -151.36,54.883c-19.361,0 -37.573,-1.476 -54.637,-4.43c-10.172,-1.641 -31.256,-7.629 -63.251,-17.966c-31.994,-10.337 -52.258,-15.505 -60.789,-15.505c-8.204,0 -14.685,2.461 -19.443,7.383c-4.759,4.923 -8.286,15.095 -10.583,30.518l-18.213,0l0,-228.885l18.213,0c8.532,47.91 20.017,83.761 34.456,107.552c14.438,23.791 36.506,43.562 66.204,59.313c29.697,15.751 62.266,23.627 97.707,23.627c41.018,0 73.423,-10.829 97.214,-32.487c23.791,-21.658 35.686,-47.254 35.686,-76.787c0,-16.408 -4.512,-32.979 -13.536,-49.715c-9.024,-16.736 -23.052,-32.323 -42.085,-46.761c-12.798,-9.845 -47.746,-30.765 -104.844,-62.759c-57.098,-31.995 -97.707,-57.509 -121.826,-76.541c-24.119,-19.033 -42.413,-40.035 -54.883,-63.005c-12.47,-22.971 -18.704,-48.238 -18.704,-75.803c0,-47.91 18.376,-89.175 55.129,-123.794c36.753,-34.62 83.514,-51.93 140.284,-51.93c35.44,0 73.013,8.696 112.72,26.088c18.376,8.204 31.338,12.305 38.885,12.305c8.532,0 15.505,-2.543 20.92,-7.629c5.414,-5.086 9.762,-15.341 13.044,-30.764l18.212,0Z" style="fill-rule:nonzero;"/>
        <path d="M457.302,657.729l67.193,-4.21c1.455,10.913 4.417,19.228 8.886,24.944c7.275,9.25 17.669,13.875 31.18,13.875c10.081,0 17.85,-2.364 23.307,-7.093c5.456,-4.729 8.185,-10.212 8.185,-16.448c0,-5.924 -2.599,-11.224 -7.795,-15.901c-5.197,-4.677 -17.253,-9.094 -36.169,-13.252c-30.972,-6.963 -53.058,-16.213 -66.257,-27.75c-13.304,-11.536 -19.955,-26.243 -19.955,-44.119c0,-11.745 3.404,-22.839 10.211,-33.285c6.808,-10.445 17.045,-18.656 30.712,-24.632c13.667,-5.976 32.401,-8.964 56.202,-8.964c29.205,0 51.473,5.431 66.803,16.292c15.33,10.861 24.45,28.139 27.36,51.836l-66.569,3.897c-1.767,-10.289 -5.482,-17.772 -11.147,-22.449c-5.664,-4.677 -13.485,-7.015 -23.463,-7.015c-8.21,0 -14.394,1.74 -18.552,5.222c-4.157,3.482 -6.236,7.717 -6.236,12.706c0,3.638 1.715,6.911 5.145,9.822c3.326,3.014 11.225,5.82 23.697,8.418c30.868,6.652 52.98,13.382 66.335,20.189c13.355,6.808 23.073,15.252 29.153,25.334c6.08,10.081 9.12,21.358 9.12,33.83c0,14.654 -4.053,28.166 -12.16,40.534c-8.107,12.368 -19.435,21.748 -33.986,28.139c-14.551,6.392 -32.895,9.588 -55.032,9.588c-38.871,0 -65.79,-7.483 -80.756,-22.449c-14.967,-14.967 -23.437,-33.986 -25.412,-57.059Z" style="fill-rule:nonzero;"/>
    </symbol>
    <symbol id="text-superscript" viewBox="0 0 665 748">
        <path d="M400.152,49.228l0,230.854l-18.212,0c-5.907,-44.301 -16.49,-79.577 -31.749,-105.829c-15.259,-26.252 -36.999,-47.089 -65.22,-62.513c-28.22,-15.423 -57.426,-23.134 -87.616,-23.134c-34.127,0 -62.348,10.419 -84.662,31.256c-22.315,20.838 -33.472,44.547 -33.472,71.127c0,20.345 7.056,38.886 21.166,55.621c20.345,24.611 68.747,57.426 145.206,98.445c62.349,33.472 104.926,59.149 127.733,77.033c22.806,17.885 40.362,38.968 52.668,63.251c12.306,24.284 18.458,49.715 18.458,76.295c0,50.535 -19.607,94.097 -58.82,130.686c-39.214,36.589 -89.667,54.883 -151.36,54.883c-19.361,0 -37.573,-1.476 -54.637,-4.43c-10.172,-1.641 -31.256,-7.629 -63.251,-17.966c-31.994,-10.337 -52.258,-15.505 -60.789,-15.505c-8.204,0 -14.685,2.461 -19.443,7.383c-4.759,4.923 -8.286,15.095 -10.583,30.518l-18.213,0l0,-228.885l18.213,0c8.532,47.91 20.017,83.761 34.456,107.552c14.438,23.791 36.506,43.562 66.204,59.313c29.697,15.751 62.266,23.627 97.707,23.627c41.018,0 73.423,-10.829 97.214,-32.487c23.791,-21.658 35.686,-47.254 35.686,-76.787c0,-16.408 -4.512,-32.979 -13.536,-49.715c-9.024,-16.736 -23.052,-32.323 -42.085,-46.761c-12.798,-9.845 -47.746,-30.765 -104.844,-62.759c-57.098,-31.995 -97.707,-57.509 -121.826,-76.541c-24.119,-19.033 -42.413,-40.035 -54.883,-63.005c-12.47,-22.971 -18.704,-48.238 -18.704,-75.803c0,-47.91 18.376,-89.175 55.129,-123.794c36.753,-34.62 83.514,-51.93 140.284,-51.93c35.44,0 73.013,8.696 112.72,26.088c18.376,8.204 31.338,12.305 38.885,12.305c8.532,0 15.505,-2.543 20.92,-7.629c5.414,-5.086 9.762,-15.341 13.044,-30.764l18.212,0Z" style="fill-rule:nonzero;"/>
        <path d="M457.302,156.835l67.193,-4.21c1.455,10.913 4.417,19.228 8.886,24.944c7.275,9.25 17.669,13.875 31.18,13.875c10.081,0 17.85,-2.364 23.307,-7.093c5.456,-4.729 8.185,-10.212 8.185,-16.448c0,-5.924 -2.599,-11.224 -7.795,-15.901c-5.197,-4.677 -17.253,-9.094 -36.169,-13.252c-30.972,-6.963 -53.058,-16.213 -66.257,-27.75c-13.304,-11.536 -19.955,-26.243 -19.955,-44.119c0,-11.745 3.404,-22.839 10.211,-33.285c6.808,-10.445 17.045,-18.656 30.712,-24.632c13.667,-5.976 32.401,-8.964 56.202,-8.964c29.205,0 51.473,5.43 66.803,16.291c15.33,10.861 24.45,28.14 27.36,51.837l-66.569,3.897c-1.767,-10.289 -5.482,-17.772 -11.147,-22.449c-5.664,-4.677 -13.485,-7.016 -23.463,-7.016c-8.21,0 -14.394,1.741 -18.552,5.223c-4.157,3.482 -6.236,7.717 -6.236,12.706c0,3.638 1.715,6.911 5.145,9.822c3.326,3.014 11.225,5.82 23.697,8.418c30.868,6.652 52.98,13.381 66.335,20.189c13.355,6.808 23.073,15.252 29.153,25.334c6.08,10.081 9.12,21.358 9.12,33.83c0,14.654 -4.053,28.166 -12.16,40.534c-8.107,12.368 -19.435,21.747 -33.986,28.139c-14.551,6.392 -32.895,9.588 -55.032,9.588c-38.871,0 -65.79,-7.483 -80.756,-22.449c-14.967,-14.967 -23.437,-33.986 -25.412,-57.059Z" style="fill-rule:nonzero;"/>
    </symbol>
    <symbol id="text-underline" viewBox="0 0 764 765">
        <g id="underline" transform="matrix(0.834243,0,0,0.834243,-56.9758,-133.357)">
            <path d="M601.977,180.709l0,-20.177l261.759,0l0,20.177l-27.812,0c-29.085,0 -51.443,12.179 -67.076,36.537c-7.635,11.27 -11.452,37.446 -11.452,78.528l0,299.932c0,74.164 -7.362,131.697 -22.086,172.597c-14.724,40.899 -43.626,75.982 -86.707,105.248c-43.082,29.267 -101.705,43.9 -175.87,43.9c-80.708,0 -141.967,-13.997 -183.776,-41.991c-41.809,-27.994 -71.438,-65.621 -88.889,-112.883c-11.634,-32.357 -17.45,-93.07 -17.45,-182.141l0,-289.025c0,-45.444 -6.272,-75.256 -18.814,-89.434c-12.543,-14.179 -32.811,-21.268 -60.805,-21.268l-27.812,0l0,-20.177l319.564,0l0,20.177l-28.357,0c-30.539,0 -52.352,9.634 -65.44,28.902c-9.089,13.088 -13.633,40.355 -13.633,81.8l0,322.29c0,28.721 2.636,61.623 7.907,98.705c5.272,37.083 14.815,65.985 28.63,86.708c13.815,20.722 33.72,37.809 59.714,51.261c25.994,13.451 57.896,20.177 95.705,20.177c48.353,0 91.616,-10.543 129.789,-31.629c38.173,-21.086 64.258,-48.08 78.255,-80.982c13.997,-32.901 20.995,-88.616 20.995,-167.143l0,-299.387c0,-46.171 -5.089,-75.074 -15.269,-86.708c-14.179,-15.996 -35.265,-23.994 -63.258,-23.994l-27.812,0Z" style="fill-rule:nonzero;"/>
            <rect x="69.189" y="1021.61" width="806.544" height="54.533"/>
        </g>
    </symbol>
</svg>