<svg xmlns="http://www.w3.org/2000/svg">
    <symbol viewBox="0 0 18 18" id="text">
        <symbol viewBox="0 0 18 18" id="text-align-center">
            <rect x="2" y="2" width="14" height="2"/>
            <rect x="4" y="6" width="10" height="2"/>
            <rect x="2" y="10" width="14" height="2"/>
            <rect x="5" y="14" width="8" height="2"/>
        </symbol>
        <symbol viewBox="0 0 18 18" id="text-align-left">
            <rect x="2" y="2" width="14" height="2"/>
            <rect x="2" y="6" width="11" height="2"/>
            <rect x="2" y="10" width="14" height="2"/>
            <rect x="2" y="14" width="9" height="2"/>
        </symbol>
        <symbol viewBox="0 0 18 18" id="text-align-right">
            <rect x="2" y="2" width="14" height="2"/>
            <rect x="5" y="6" width="11" height="2"/>
            <rect x="2" y="10" width="14" height="2"/>
            <rect x="7" y="14" width="9" height="2"/>
        </symbol>
        <symbol viewBox="0 0 18 18" id="text-subscript">
            <path d="M10,2l0,4.63l-0.269,0c-0.119,-0.888 -0.334,-1.596 -0.644,-2.122c-0.31,-0.527 -0.751,-0.945 -1.323,-1.254c-0.573,-0.309 -1.166,-0.464 -1.778,-0.464c-0.693,0 -1.266,0.209 -1.719,0.627c-0.452,0.418 -0.679,0.893 -0.679,1.426c0,0.409 0.143,0.78 0.43,1.116c0.413,0.494 1.395,1.152 2.946,1.975c1.266,0.671 2.13,1.186 2.593,1.545c0.462,0.359 0.819,0.781 1.068,1.269c0.25,0.487 0.375,0.997 0.375,1.53c0,1.013 -0.398,1.887 -1.194,2.621c-0.795,0.734 -1.819,1.101 -3.071,1.101c-0.393,0 -0.763,-0.03 -1.109,-0.089c-0.206,-0.033 -0.634,-0.153 -1.284,-0.36c-0.649,-0.208 -1.06,-0.311 -1.233,-0.311c-0.167,0 -0.298,0.049 -0.395,0.148c-0.096,0.099 -0.168,0.303 -0.215,0.612l-0.499,0l0,-4.591l0.499,0c0.174,0.961 0.407,1.68 0.7,2.157c0.293,0.477 0.741,0.874 1.343,1.19c0.603,0.316 1.264,0.474 1.983,0.474c0.832,0 1.49,-0.217 1.973,-0.652c0.483,-0.434 0.724,-0.948 0.724,-1.54c0,-0.329 -0.092,-0.661 -0.275,-0.997c-0.183,-0.336 -0.468,-0.648 -0.854,-0.938c-0.259,-0.197 -0.969,-0.617 -2.127,-1.259c-1.159,-0.642 -1.983,-1.153 -2.473,-1.535c-0.489,-0.382 -0.86,-0.803 -1.113,-1.264c-0.253,-0.461 -0.38,-0.967 -0.38,-1.52c0,-0.961 0.373,-1.789 1.119,-2.483c0.746,-0.695 1.695,-1.042 2.847,-1.042c0.719,0 1.481,0.174 2.287,0.523c0.373,0.165 0.636,0.247 0.789,0.247c0.173,0 0.315,-0.051 0.425,-0.153c0.11,-0.102 0.198,-0.308 0.264,-0.617l0.269,0Z" style="fill-rule:nonzero;"/>
            <path d="M15.558,11l0,1.928l-0.211,0c-0.162,-0.606 -0.37,-1.018 -0.624,-1.236c-0.254,-0.218 -0.577,-0.327 -0.969,-0.327c-0.299,0 -0.54,0.076 -0.724,0.228c-0.183,0.153 -0.275,0.322 -0.275,0.507c0,0.231 0.068,0.428 0.205,0.593c0.132,0.169 0.401,0.348 0.806,0.538l0.935,0.438c0.866,0.408 1.299,0.946 1.299,1.613c0,0.515 -0.202,0.93 -0.605,1.245c-0.403,0.315 -0.854,0.473 -1.353,0.473c-0.359,0 -0.768,-0.062 -1.229,-0.185c-0.141,-0.042 -0.256,-0.062 -0.346,-0.062c-0.098,0 -0.175,0.053 -0.23,0.16l-0.211,0l0,-2.02l0.211,0c0.119,0.577 0.348,1.011 0.685,1.304c0.337,0.292 0.714,0.438 1.132,0.438c0.295,0 0.535,-0.083 0.72,-0.25c0.186,-0.167 0.279,-0.367 0.279,-0.602c0,-0.285 -0.104,-0.523 -0.311,-0.717c-0.207,-0.194 -0.619,-0.439 -1.238,-0.735c-0.619,-0.297 -1.024,-0.565 -1.216,-0.804c-0.192,-0.235 -0.288,-0.531 -0.288,-0.89c0,-0.465 0.165,-0.854 0.496,-1.167c0.331,-0.313 0.758,-0.47 1.283,-0.47c0.231,0 0.51,0.047 0.839,0.142c0.217,0.062 0.362,0.093 0.435,0.093c0.068,0 0.121,-0.015 0.16,-0.043c0.038,-0.029 0.083,-0.093 0.134,-0.192l0.211,0Z" style="fill-rule:nonzero;"/>
        </symbol>
        <symbol viewBox="0 0 18 18" id="text-superscript">
            <path d="M10,2l0,4.63l-0.269,0c-0.119,-0.888 -0.334,-1.596 -0.644,-2.122c-0.31,-0.527 -0.751,-0.945 -1.323,-1.254c-0.573,-0.309 -1.166,-0.464 -1.778,-0.464c-0.693,0 -1.266,0.209 -1.719,0.627c-0.452,0.418 -0.679,0.893 -0.679,1.426c0,0.409 0.143,0.78 0.43,1.116c0.413,0.494 1.395,1.152 2.946,1.975c1.266,0.671 2.13,1.186 2.593,1.545c0.462,0.359 0.819,0.781 1.068,1.269c0.25,0.487 0.375,0.997 0.375,1.53c0,1.013 -0.398,1.887 -1.194,2.621c-0.795,0.734 -1.819,1.101 -3.071,1.101c-0.393,0 -0.763,-0.03 -1.109,-0.089c-0.206,-0.033 -0.634,-0.153 -1.284,-0.36c-0.649,-0.208 -1.06,-0.311 -1.233,-0.311c-0.167,0 -0.298,0.049 -0.395,0.148c-0.096,0.099 -0.168,0.303 -0.215,0.612l-0.499,0l0,-4.591l0.499,0c0.174,0.961 0.407,1.68 0.7,2.157c0.293,0.477 0.741,0.874 1.343,1.19c0.603,0.316 1.264,0.474 1.983,0.474c0.832,0 1.49,-0.217 1.973,-0.652c0.483,-0.434 0.724,-0.948 0.724,-1.54c0,-0.329 -0.092,-0.661 -0.275,-0.997c-0.183,-0.336 -0.468,-0.648 -0.854,-0.938c-0.259,-0.197 -0.969,-0.617 -2.127,-1.259c-1.159,-0.642 -1.983,-1.153 -2.473,-1.535c-0.489,-0.382 -0.86,-0.803 -1.113,-1.264c-0.253,-0.461 -0.38,-0.967 -0.38,-1.52c0,-0.961 0.373,-1.789 1.119,-2.483c0.746,-0.695 1.695,-1.042 2.847,-1.042c0.719,0 1.481,0.174 2.287,0.523c0.373,0.165 0.636,0.247 0.789,0.247c0.173,0 0.315,-0.051 0.425,-0.153c0.11,-0.102 0.198,-0.308 0.264,-0.617l0.269,0Z" style="fill-rule:nonzero;"/>
            <path d="M15.558,1l0,1.928l-0.211,0c-0.162,-0.606 -0.37,-1.018 -0.624,-1.236c-0.254,-0.218 -0.577,-0.327 -0.969,-0.327c-0.299,0 -0.54,0.076 -0.724,0.228c-0.183,0.153 -0.275,0.322 -0.275,0.507c0,0.231 0.068,0.428 0.205,0.593c0.132,0.169 0.401,0.348 0.806,0.538l0.935,0.438c0.866,0.408 1.299,0.946 1.299,1.613c0,0.515 -0.202,0.93 -0.605,1.245c-0.403,0.315 -0.854,0.473 -1.353,0.473c-0.359,0 -0.768,-0.062 -1.229,-0.185c-0.141,-0.042 -0.256,-0.062 -0.346,-0.062c-0.098,0 -0.175,0.053 -0.23,0.16l-0.211,0l0,-2.02l0.211,0c0.119,0.577 0.348,1.011 0.685,1.304c0.337,0.292 0.714,0.438 1.132,0.438c0.295,0 0.535,-0.083 0.72,-0.25c0.186,-0.167 0.279,-0.367 0.279,-0.602c0,-0.285 -0.104,-0.523 -0.311,-0.717c-0.207,-0.194 -0.619,-0.439 -1.238,-0.735c-0.619,-0.297 -1.024,-0.565 -1.216,-0.804c-0.192,-0.235 -0.288,-0.531 -0.288,-0.89c0,-0.465 0.165,-0.854 0.496,-1.167c0.331,-0.313 0.758,-0.47 1.283,-0.47c0.231,0 0.51,0.047 0.839,0.142c0.217,0.062 0.362,0.093 0.435,0.093c0.068,0 0.121,-0.015 0.16,-0.043c0.038,-0.029 0.083,-0.093 0.134,-0.192l0.211,0Z" style="fill-rule:nonzero;"/>
        </symbol>
        <symbol viewBox="0 0 18 18" id="text-strikethrough">
            <rect x="2" y="8" width="14" height="2"/>
            <path d="M4.727,14.014l0,-2.014l1.257,0l0,1.483c0.339,0.262 0.743,0.488 1.212,0.679c0.469,0.19 0.997,0.285 1.583,0.285c0.339,0 0.664,-0.05 0.977,-0.148c0.313,-0.098 0.59,-0.242 0.831,-0.432c0.241,-0.191 0.433,-0.43 0.576,-0.718c0.143,-0.289 0.215,-0.623 0.215,-1.003c0,-0.682 -0.156,-1.206 -0.469,-1.573c-0.313,-0.367 -0.704,-0.652 -1.173,-0.855c-0.469,-0.203 -0.977,-0.377 -1.524,-0.521c-0.547,-0.145 -1.058,-0.341 -1.534,-0.59c-0.475,-0.249 -0.873,-0.597 -1.192,-1.042c-0.319,-0.446 -0.485,-1.075 -0.498,-1.888c-0.013,-0.433 0.045,-0.865 0.176,-1.298c0.13,-0.432 0.345,-0.826 0.644,-1.18c0.3,-0.353 0.697,-0.642 1.193,-0.865c0.495,-0.223 1.1,-0.334 1.817,-0.334c0.234,0 0.489,0.013 0.762,0.039c0.274,0.027 0.56,0.079 0.86,0.158c0.3,0.078 0.609,0.196 0.928,0.354c0.319,0.157 0.635,0.367 0.948,0.629l0,1.82l-1.544,0l0,-1.053c-0.247,-0.105 -0.534,-0.197 -0.86,-0.276c-0.325,-0.078 -0.684,-0.118 -1.075,-0.118c-0.755,0 -1.315,0.217 -1.68,0.649c-0.365,0.433 -0.547,0.944 -0.547,1.534c0,0.393 0.091,0.711 0.273,0.954c0.183,0.242 0.424,0.445 0.723,0.609c0.3,0.164 0.642,0.305 1.026,0.423c0.385,0.118 0.775,0.246 1.173,0.383c0.397,0.138 0.788,0.302 1.172,0.492c0.385,0.19 0.727,0.439 1.026,0.747c0.3,0.308 0.541,0.688 0.723,1.141c0.183,0.452 0.274,1.012 0.274,1.681c0,0.59 -0.107,1.121 -0.322,1.592c-0.215,0.472 -0.509,0.875 -0.88,1.21c-0.371,0.334 -0.804,0.59 -1.299,0.767c-0.495,0.177 -1.017,0.265 -1.564,0.265c-0.495,0 -0.977,-0.056 -1.446,-0.167c-0.469,-0.112 -0.899,-0.259 -1.29,-0.443c-0.391,-0.183 -0.739,-0.393 -1.045,-0.629c-0.306,-0.236 -0.427,-0.747 -0.427,-0.747Z" style="fill-rule:nonzero;"/>
        </symbol>
        <symbol viewBox="0 0 18 18" id="text-underline">
            <rect x="2" y="15" width="14" height="2"/>
            <path d="M7,2l0,1c-0.552,0 -1,0.448 -1,1l0,5c0,1.932 1.568,3.5 3.5,3.5c1.932,0 3.5,-1.568 3.5,-3.5l0,-5c0,-0.552 -0.448,-1 -1,-1l0,-1l3,0l0,1c-0.265,0 -0.52,0.105 -0.707,0.293c-0.188,0.187 -0.293,0.442 -0.293,0.707l0,5c0,2.76 -2.24,5 -5,5c-2.76,0 -5,-2.24 -5,-5l0,-5c0,-0.552 -0.448,-1 -1,-1l0,-1l4,0Z"/>
        </symbol>
        <symbol viewBox="0 0 18 18" id="text-italic">
            <path d="M8,2c0,0 -0.001,1 0,1c0.463,0 0.9,0.223 1.17,0.598c0.271,0.376 0.345,0.858 0.198,1.297l-3.026,9.079c-0.204,0.613 -0.777,1.026 -1.423,1.026l-0.919,0l0,1l6,0c0,0 0.001,-1 0,-1c-0.463,0 -0.9,-0.223 -1.17,-0.598c-0.271,-0.376 -0.345,-0.858 -0.198,-1.297l3.026,-9.079c0.204,-0.613 0.777,-1.026 1.423,-1.026l0.919,0l0,-1l-6,0"/>
        </symbol>
        <symbol viewBox="0 0 18 18" id="text-bold">
            <path d="M3,16l0,-1c0.265,0 0.52,-0.105 0.707,-0.293c0.188,-0.187 0.293,-0.442 0.293,-0.707l0,-10c0,-0.265 -0.105,-0.52 -0.293,-0.707c-0.187,-0.188 -0.442,-0.293 -0.707,-0.293l0,-1l7.5,0c1.932,0 3.5,1.568 3.5,3.5c0,1.157 -0.563,2.184 -1.429,2.821c1.428,0.611 2.429,2.029 2.429,3.679c0,2.208 -1.792,4 -4,4l-8,0Zm6,-7l-2,0l0,6l2,0c1.656,0 3,-1.344 3,-3c0,-1.656 -1.344,-3 -3,-3Zm-2,-6l0,5l2,0c1.38,0 2.5,-1.12 2.5,-2.5c0,-1.38 -1.12,-2.5 -2.5,-2.5l-2,0Z"/>
        </symbol>
    </symbol>
</svg>
